<svg xmlns="http://www.w3.org/2000/svg" width="467" height="147" viewBox="0 0 467 147"><g id="Grupo_5109" data-name="Grupo 5109" transform="translate(-426 -9661)"><g id="Grupo_5100" data-name="Grupo 5100" transform="translate(467.253 9200.125)"><g id="Grupo_5097" data-name="Grupo 5097" transform="translate(121.624 576.5)"><path id="Trazado_87218" data-name="Trazado 87218" d="M145.381,649.419a4.722,4.722,0,0,0-1.593-1.046,5.335,5.335,0,0,0-2.019-.373,7.64,7.64,0,0,0-1.206.1,5.3,5.3,0,0,0-1.225.353,4.631,4.631,0,0,0-1.142.7,4.2,4.2,0,0,0-.941,1.127,4.593,4.593,0,0,0-1.748-1.673,5.149,5.149,0,0,0-2.522-.607,5.86,5.86,0,0,0-.987.087,4.5,4.5,0,0,0-1.012.3,4.01,4.01,0,0,0-1.793,1.506v-1.56h-2.683V661.1h2.709v-7.078a3.8,3.8,0,0,1,.259-1.446,3.113,3.113,0,0,1,.69-1.06,2.867,2.867,0,0,1,1.012-.646,3.46,3.46,0,0,1,1.239-.22,2.665,2.665,0,0,1,2.122.867,3.663,3.663,0,0,1,.755,2.479v7.1H138v-7.078a3.8,3.8,0,0,1,.258-1.446,3.113,3.113,0,0,1,.69-1.06,2.867,2.867,0,0,1,1.012-.646,3.46,3.46,0,0,1,1.239-.22,2.667,2.667,0,0,1,2.122.867,3.663,3.663,0,0,1,.754,2.479v7.1h2.709v-8.024a5.555,5.555,0,0,0-.368-2.053A4.678,4.678,0,0,0,145.381,649.419Z" transform="translate(-126.508 -643.142)" fill="#161615"></path><path id="Trazado_87219" data-name="Trazado 87219" d="M173.782,649.879a5,5,0,0,0-1.653-1.366,5.053,5.053,0,0,0-2.359-.514,6.228,6.228,0,0,0-4.532,1.893,6.445,6.445,0,0,0-1.359,2.126,7.632,7.632,0,0,0,0,5.4,6.453,6.453,0,0,0,1.359,2.126,6.231,6.231,0,0,0,4.532,1.893,5.107,5.107,0,0,0,2.359-.507,4.92,4.92,0,0,0,1.653-1.359V661.1h2.786V648.332h-2.786Zm-.107,6.465a3.884,3.884,0,0,1-.786,1.293,3.658,3.658,0,0,1-1.213.86,4.145,4.145,0,0,1-3.193-.014,3.6,3.6,0,0,1-1.206-.88,3.9,3.9,0,0,1-.76-1.3,4.85,4.85,0,0,1,0-3.172,3.9,3.9,0,0,1,.76-1.3,3.6,3.6,0,0,1,1.206-.88,4.141,4.141,0,0,1,3.193-.013,3.651,3.651,0,0,1,1.213.86,3.88,3.88,0,0,1,.786,1.293,4.859,4.859,0,0,1,0,3.252Z" transform="translate(-140.622 -643.142)" fill="#161615"></path><path id="Trazado_87220" data-name="Trazado 87220" d="M199.214,654.705a6.893,6.893,0,0,0-3.266-1.22l-1.32-.2q-.44-.067-.827-.154a2.688,2.688,0,0,1-.666-.233,1.272,1.272,0,0,1-.447-.373.919.919,0,0,1-.167-.56,1.271,1.271,0,0,1,.633-1.1,3.206,3.206,0,0,1,1.78-.42,6.52,6.52,0,0,1,1.18.107,9.626,9.626,0,0,1,1.1.267,7.9,7.9,0,0,1,.947.353,7.755,7.755,0,0,1,.72.367l1.2-2.173a8.2,8.2,0,0,0-2.333-.993,11.058,11.058,0,0,0-2.839-.353,7.8,7.8,0,0,0-2.2.286,5.05,5.05,0,0,0-1.659.813A3.547,3.547,0,0,0,190,650.407a3.876,3.876,0,0,0-.367,1.706,3.147,3.147,0,0,0,1.1,2.5,6.128,6.128,0,0,0,3.232,1.246l1.333.173a4.2,4.2,0,0,1,1.68.513,1.051,1.051,0,0,1,.533.9,1.274,1.274,0,0,1-.733,1.14,4.472,4.472,0,0,1-2.173.42,8.37,8.37,0,0,1-1.406-.106,7.1,7.1,0,0,1-1.133-.287,5.486,5.486,0,0,1-.92-.413,6.753,6.753,0,0,1-.753-.5l-1.293,2.093a6.848,6.848,0,0,0,1.452.84,9.994,9.994,0,0,0,1.493.5,9.419,9.419,0,0,0,1.386.24q.653.06,1.146.06a9.064,9.064,0,0,0,2.459-.307,5.531,5.531,0,0,0,1.826-.86,3.812,3.812,0,0,0,1.133-1.32,3.644,3.644,0,0,0,.393-1.686A3.052,3.052,0,0,0,199.214,654.705Z" transform="translate(-150.463 -643.151)" fill="#161615"></path><path id="Trazado_87221" data-name="Trazado 87221" d="M241.1,649.859a5.457,5.457,0,0,0-1.906-1.373,6.045,6.045,0,0,0-2.446-.486,6.639,6.639,0,0,0-2.579.486,5.807,5.807,0,0,0-2.006,1.373,6.248,6.248,0,0,0-1.307,2.126,7.7,7.7,0,0,0-.466,2.733,7.591,7.591,0,0,0,.48,2.759,6.135,6.135,0,0,0,1.346,2.119,5.965,5.965,0,0,0,2.066,1.359,7.037,7.037,0,0,0,2.639.48,9.435,9.435,0,0,0,2.765-.4,6.96,6.96,0,0,0,2.486-1.4l-1.386-1.986a6.235,6.235,0,0,1-1.766.993A5.572,5.572,0,0,1,237.1,659a4.542,4.542,0,0,1-1.306-.186,3.422,3.422,0,0,1-1.133-.58,3.493,3.493,0,0,1-.867-1.007,4.142,4.142,0,0,1-.493-1.48h9.437q.027-.24.04-.506t.014-.533a7.946,7.946,0,0,0-.447-2.726A6.416,6.416,0,0,0,241.1,649.859Zm-7.791,3.765a4.787,4.787,0,0,1,.373-1.273,3.43,3.43,0,0,1,.686-1,2.887,2.887,0,0,1,1-.646,3.618,3.618,0,0,1,1.326-.227,2.964,2.964,0,0,1,2.173.826,3.987,3.987,0,0,1,1.067,2.319Z" transform="translate(-166.268 -643.142)" fill="#161615"></path><path id="Trazado_87222" data-name="Trazado 87222" d="M301.257,649.879a5,5,0,0,0-1.653-1.366,5.055,5.055,0,0,0-2.359-.514,6.226,6.226,0,0,0-4.532,1.893,6.456,6.456,0,0,0-1.36,2.126,7.632,7.632,0,0,0,0,5.4,6.464,6.464,0,0,0,1.36,2.126,6.228,6.228,0,0,0,4.532,1.893,5.109,5.109,0,0,0,2.359-.507,4.92,4.92,0,0,0,1.653-1.359V661.1h2.786V648.332h-2.786Zm-.107,6.465a3.884,3.884,0,0,1-.786,1.293,3.658,3.658,0,0,1-1.213.86,4.145,4.145,0,0,1-3.193-.014,3.605,3.605,0,0,1-1.206-.88,3.9,3.9,0,0,1-.76-1.3,4.85,4.85,0,0,1,0-3.172,3.9,3.9,0,0,1,.76-1.3,3.6,3.6,0,0,1,1.206-.88,4.141,4.141,0,0,1,3.193-.013,3.65,3.65,0,0,1,1.213.86,3.88,3.88,0,0,1,.786,1.293,4.868,4.868,0,0,1,0,3.252Z" transform="translate(-189.411 -643.142)" fill="#161615"></path><path id="Trazado_87223" data-name="Trazado 87223" d="M219.446,656.366a3.761,3.761,0,0,1-1.326.253,2.3,2.3,0,0,1-.793-.133,1.639,1.639,0,0,1-.639-.42,2.027,2.027,0,0,1-.433-.739,3.3,3.3,0,0,1-.16-1.093v-5.558h4.475v-2.533h-4.475v-3.865h-2.8v3.865h-2.546v2.533h2.546v5.612a5.118,5.118,0,0,0,1.206,3.752,4.567,4.567,0,0,0,3.379,1.206,6.014,6.014,0,0,0,2.18-.373,9.157,9.157,0,0,0,1.191-.559l-.953-2.333A7.221,7.221,0,0,1,219.446,656.366Z" transform="translate(-158.749 -640.952)" fill="#161615"></path><path id="Trazado_87224" data-name="Trazado 87224" d="M261.719,648a5.109,5.109,0,0,0-2.12.427,4.513,4.513,0,0,0-1.586,1.582v-1.675h-2.529V661.1h2.556v-7.025a4.335,4.335,0,0,1,.227-1.453,3.134,3.134,0,0,1,.627-1.08,2.594,2.594,0,0,1,.959-.666,3.237,3.237,0,0,1,1.227-.227,5.464,5.464,0,0,1,1.093.12,4.6,4.6,0,0,1,.56.15l.823-2.665a5.115,5.115,0,0,0-.683-.17A6.942,6.942,0,0,0,261.719,648Z" transform="translate(-175.871 -643.142)" fill="#161615"></path><path id="Trazado_87225" data-name="Trazado 87225" d="M324.456,648a5.108,5.108,0,0,0-2.119.427,4.5,4.5,0,0,0-1.586,1.582v-1.675h-2.529V661.1h2.556v-7.025a4.333,4.333,0,0,1,.227-1.453,3.133,3.133,0,0,1,.627-1.08,2.594,2.594,0,0,1,.959-.666,3.237,3.237,0,0,1,1.227-.227,5.453,5.453,0,0,1,1.093.12,4.569,4.569,0,0,1,.56.15l.824-2.665a5.115,5.115,0,0,0-.683-.17A6.944,6.944,0,0,0,324.456,648Z" transform="translate(-199.883 -643.142)" fill="#161615"></path><path id="Trazado_87226" data-name="Trazado 87226" d="M342.956,640.131v6.736A5,5,0,0,0,341.3,645.5a5.057,5.057,0,0,0-2.36-.513,6.226,6.226,0,0,0-4.531,1.893,6.446,6.446,0,0,0-1.36,2.126,7.631,7.631,0,0,0,0,5.4,6.455,6.455,0,0,0,1.36,2.126,6.229,6.229,0,0,0,4.531,1.893,5.111,5.111,0,0,0,2.36-.507,4.918,4.918,0,0,0,1.652-1.359v1.533h2.786V640.131Zm-.107,13.2a3.883,3.883,0,0,1-.786,1.293,3.659,3.659,0,0,1-1.213.86,4.143,4.143,0,0,1-3.192-.014,3.608,3.608,0,0,1-1.207-.88,3.9,3.9,0,0,1-.759-1.3,4.85,4.85,0,0,1,0-3.172,3.892,3.892,0,0,1,.759-1.3,3.6,3.6,0,0,1,1.207-.88,4.14,4.14,0,0,1,3.192-.013,3.65,3.65,0,0,1,1.213.86,3.881,3.881,0,0,1,.786,1.293,4.859,4.859,0,0,1,0,3.252Z" transform="translate(-205.37 -640.131)" fill="#161615"></path><path id="Trazado_87227" data-name="Trazado 87227" d="M273.9,651.765a3.751,3.751,0,0,1,1.266-.84,4.146,4.146,0,0,1,1.586-.3h0a4.966,4.966,0,0,1,1.745.3,4.2,4.2,0,0,1,1.352.805l1.341-2.23a6.823,6.823,0,0,0-1.7-.988,7.562,7.562,0,0,0-5.478,0,6.6,6.6,0,0,0-2.173,1.413,6.528,6.528,0,0,0-1.433,2.126,7.09,7.09,0,0,0,0,5.332,6.526,6.526,0,0,0,1.433,2.125,6.6,6.6,0,0,0,2.173,1.414,7.57,7.57,0,0,0,5.478,0,6.825,6.825,0,0,0,1.7-.988l-1.341-2.23a4.194,4.194,0,0,1-1.352.806,4.967,4.967,0,0,1-1.745.3h0a4.147,4.147,0,0,1-1.586-.3,3.742,3.742,0,0,1-1.266-.84,3.9,3.9,0,0,1-.84-1.293,4.642,4.642,0,0,1,0-3.319A3.917,3.917,0,0,1,273.9,651.765Z" transform="translate(-181.383 -643.142)" fill="#161615"></path></g><g id="Grupo_5098" data-name="Grupo 5098" transform="translate(266.519 592.588)"><path id="Trazado_87228" data-name="Trazado 87228" d="M362.589,666.195a1.33,1.33,0,0,1,.522.1,1.358,1.358,0,0,1,.425.28,1.325,1.325,0,0,1,.286.414,1.276,1.276,0,0,1,0,1.01,1.326,1.326,0,0,1-.71.7,1.317,1.317,0,0,1-.522.1,1.35,1.35,0,0,1-.53-.1,1.332,1.332,0,0,1-.428-.281,1.309,1.309,0,0,1-.285-.416,1.3,1.3,0,0,1,0-1.01,1.291,1.291,0,0,1,.285-.414,1.337,1.337,0,0,1,.428-.28A1.363,1.363,0,0,1,362.589,666.195Zm0,2.245a.911.911,0,0,0,.365-.074.948.948,0,0,0,.3-1.534.946.946,0,0,0-.3-.2.909.909,0,0,0-.365-.074.931.931,0,0,0-.372.074.963.963,0,0,0-.3.2.958.958,0,0,0-.2,1.034.928.928,0,0,0,.5.5A.933.933,0,0,0,362.589,668.439Zm.075-1.519a.541.541,0,0,1,.361.106.354.354,0,0,1,.123.283.316.316,0,0,1-.089.23.449.449,0,0,1-.256.12l.359.415h-.388l-.322-.4h-.038v.4h-.325V666.92Zm-.249.281v.212h.244a.238.238,0,0,0,.116-.023.085.085,0,0,0,.04-.081.089.089,0,0,0-.04-.081.212.212,0,0,0-.116-.026Z" transform="translate(-361.244 -666.195)" fill="#161615"></path></g><g id="Grupo_5099" data-name="Grupo 5099" transform="translate(113.747 473.875)"><path id="Trazado_87229" data-name="Trazado 87229" d="M173.449,522a48.028,48.028,0,0,1,18.274-37.734,48.125,48.125,0,1,0,0,75.467A48.026,48.026,0,0,1,173.449,522Z" transform="translate(-113.747 -473.875)" fill="#d90010"></path><ellipse id="Elipse_94" data-name="Elipse 94" cx="18.274" cy="37.734" rx="18.274" ry="37.734" transform="translate(59.701 10.391)" fill="#e54800"></ellipse><path id="Trazado_87230" data-name="Trazado 87230" d="M360.754,592.9v-1.409h-.569V591.1h1.56v.388h-.57V592.9Zm3.017,0V591.65l-.4,1.075h-.446l-.4-1.072V592.9H362.1v-1.8h.6l.446,1.151.443-1.151h.6v1.8Z" transform="translate(-208.066 -518.741)" fill="#f78b00"></path><path id="Trazado_87231" data-name="Trazado 87231" d="M269.921,473.875a47.909,47.909,0,0,0-29.851,10.391,48.094,48.094,0,0,1,0,75.467,48.12,48.12,0,1,0,29.851-85.859Z" transform="translate(-162.095 -473.875)" fill="#f78b00"></path></g></g><rect id="Rect&#xE1;ngulo_1747" data-name="Rect&#xE1;ngulo 1747" width="467" height="147" transform="translate(426 9661)" fill="none"></rect></g></svg>