<svg xmlns="http://www.w3.org/2000/svg" width="467" height="147" viewBox="0 0 467 147"><g id="Grupo_5111" data-name="Grupo 5111" transform="translate(-1531 -9661)"><g id="Grupo_5095" data-name="Grupo 5095" transform="translate(1431 9327)"><path id="Trazado_87179" data-name="Trazado 87179" d="M385.151,391.2a4.462,4.462,0,1,1,4.458,4.661,4.5,4.5,0,0,1-4.458-4.661Zm4.458,3.647a3.478,3.478,0,0,0,3.377-3.58,3.522,3.522,0,0,0-3.377-3.579,3.585,3.585,0,0,0,0,7.159ZM389,393.3h-.945v-4.12h1.688a1.72,1.72,0,0,1,1.014.2,1.139,1.139,0,0,1,.473,1.014,1.039,1.039,0,0,1-.675,1.013l.743,1.824h-1.013l-.608-1.621H389V393.3Zm0-2.3h.54a1.329,1.329,0,0,0,.541-.067.527.527,0,0,0,.2-.473.483.483,0,0,0-.2-.405,1.5,1.5,0,0,0-.541-.067h-.473L389,391Z" transform="translate(53.881 6.823)" fill="#fd0c15" fill-rule="evenodd"></path><path id="Trazado_87180" data-name="Trazado 87180" d="M342.686,366.892l-1.215,7.968a13.488,13.488,0,0,0-6.687-1.958c-5.538,0-9.456,5.674-9.456,13.71,0,5.538,2.635,8.915,6.957,8.915a14.112,14.112,0,0,0,6.349-1.891l-1.284,8.375a21.678,21.678,0,0,1-6.619,1.081c-8.037,0-13.035-6.079-13.035-15.805,0-13.1,6.889-22.289,16.818-22.289a12.524,12.524,0,0,1,3.377.406l3.106.811c.811.337,1.014.4,1.689.675Z" transform="translate(32.52)" fill="#fd0c15" fill-rule="evenodd"></path><path id="Trazado_87181" data-name="Trazado 87181" d="M322.073,370.608a2.5,2.5,0,0,0-.743-.068c-2.432,0-3.85,1.284-6.146,4.864l.675-4.525h-6.755l-4.593,29.784h7.5c2.7-18.236,3.376-21.342,6.956-21.342h.54a29.486,29.486,0,0,1,2.837-8.645l-.27-.067Z" transform="translate(28.346 1.754)" fill="#fd0c15" fill-rule="evenodd"></path><path id="Trazado_87182" data-name="Trazado 87182" d="M286.639,401.249a16.418,16.418,0,0,1-5.336,1.013c-3.781,0-5.875-2.3-5.875-6.552a19.734,19.734,0,0,1,.2-2.7l.473-2.9.338-2.365,3.242-20.329h7.43l-.878,4.39h3.85L289,379.028H285.22l-1.958,12.427c-.067.541-.136.947-.136,1.217,0,1.554.811,2.229,2.568,2.229a5.637,5.637,0,0,0,2.025-.27l-1.08,6.619Z" transform="translate(19.136 0.763)" fill="#fd0c15" fill-rule="evenodd"></path><path id="Trazado_87183" data-name="Trazado 87183" d="M262.243,380.348c0,3.781,1.756,6.349,5.673,8.307,2.972,1.487,3.513,1.959,3.513,3.31,0,1.824-1.351,2.7-4.255,2.7a18.72,18.72,0,0,1-6.686-1.217l-1.014,6.89.338.067,1.351.27c.473.067,1.08.2,1.958.27,1.756.136,3.174.27,4.12.27,7.836,0,11.483-3.174,11.483-9.928,0-4.053-1.487-6.485-5.269-8.308-3.106-1.485-3.444-1.824-3.444-3.242q0-2.431,3.647-2.432a40.944,40.944,0,0,1,5.336.473l1.081-6.889a46.48,46.48,0,0,0-6.552-.608c-8.443,0-11.347,4.527-11.28,10.065Z" transform="translate(14.083 1.673)" fill="#fd0c15" fill-rule="evenodd"></path><path id="Trazado_87184" data-name="Trazado 87184" d="M387.326,402.187h-7.092l.337-2.9a8.675,8.675,0,0,1-6.889,3.31c-5.471,0-9.051-4.931-9.051-12.36,0-9.929,5.539-18.3,12.158-18.3,2.9,0,5.065,1.284,7.159,4.053l1.621-10.469h7.363l-5.606,36.674Zm-11.009-6.956c3.512,0,5.943-4.121,5.943-10.063,0-3.783-1.418-5.876-3.986-5.876-3.377,0-5.808,4.187-5.808,9.995,0,3.918,1.284,5.945,3.85,5.945Z" transform="translate(47.383 0.162)" fill="#fd0c15" fill-rule="evenodd"></path><path id="Trazado_87185" data-name="Trazado 87185" d="M306.8,400.1a24.8,24.8,0,0,1-7.7,1.217c-8.308,0-12.7-4.593-12.7-13.373,0-10.266,5.538-17.763,13.035-17.763,6.146,0,10.065,4.255,10.065,10.874a32.712,32.712,0,0,1-.947,7.362H293.7a5.546,5.546,0,0,0-.067.945c0,3.513,2.229,5.269,6.552,5.269a17.514,17.514,0,0,0,7.767-1.892L306.8,400.1Zm-4.188-17.763a13.17,13.17,0,0,0,.067-1.485c0-2.432-1.282-3.85-3.512-3.85-2.363,0-4.053,1.891-4.728,5.335Z" transform="translate(22.612 1.641)" fill="#fd0c15" fill-rule="evenodd"></path><path id="Trazado_87186" data-name="Trazado 87186" d="M246,402.171h-7.429l4.255-28.165-9.591,28.165h-5.065l-.608-27.962-4.525,27.962h-6.957l5.809-36.607h10.739l.27,22.694,7.294-22.694h11.617L246,402.171Z" transform="translate(0.341 0.179)" fill="#fd0c15" fill-rule="evenodd"></path><path id="Trazado_87187" data-name="Trazado 87187" d="M257.108,387.455c-.81-.067-1.148-.134-1.688-.134-4.255,0-6.349,1.552-6.349,4.524a2.726,2.726,0,0,0,2.7,3.04c2.972,0,5.2-3.04,5.335-7.43Zm5.4,13.238H256.3l.134-3.106c-1.891,2.5-4.39,3.579-7.834,3.579-4.053,0-6.822-3.309-6.822-8.1,0-7.294,4.862-11.483,13.1-11.483a25.634,25.634,0,0,1,3.039.2,9.242,9.242,0,0,0,.27-1.958c0-1.959-1.284-2.7-4.8-2.7a22.228,22.228,0,0,0-6.213.878l-.947.337-.674.2,1.013-6.686a28.758,28.758,0,0,1,8.915-1.622c6.416,0,9.793,3.04,9.793,8.714a40.4,40.4,0,0,1-.608,5.943l-1.485,10.6-.27,1.892-.2,1.485-.136,1.081-.067.743Z" transform="translate(8.479 1.657)" fill="#fd0c15" fill-rule="evenodd"></path><path id="Trazado_87188" data-name="Trazado 87188" d="M350.16,387.471c-.743-.067-1.148-.134-1.688-.134-4.255,0-6.416,1.552-6.416,4.524a2.726,2.726,0,0,0,2.7,3.04c3.039,0,5.268-3.04,5.4-7.43Zm5.4,13.238h-6.213l.134-3.106c-1.891,2.5-4.39,3.579-7.834,3.579-4.053,0-6.822-3.309-6.822-8.1,0-7.294,4.864-11.483,13.1-11.483a26.566,26.566,0,0,1,3.039.2,9.238,9.238,0,0,0,.27-1.958c0-1.959-1.284-2.7-4.8-2.7a22.229,22.229,0,0,0-6.213.878l-1.081.27-.675.2,1.014-6.687a28.751,28.751,0,0,1,8.915-1.621c6.416,0,9.793,3.039,9.793,8.712a40.4,40.4,0,0,1-.608,5.945l-1.554,10.536-.2,1.891-.2,1.487-.134,1.013.067.945Z" transform="translate(37.946 1.641)" fill="#fd0c15" fill-rule="evenodd"></path><path id="Trazado_87189" data-name="Trazado 87189" d="M370.651,370.608a2.5,2.5,0,0,0-.743-.068c-2.432,0-3.85,1.284-6.148,4.864l.677-4.525h-6.754l-4.593,29.784h7.5c2.7-18.236,3.376-21.342,6.956-21.342h.541a31.61,31.61,0,0,1,2.836-8.645l-.27-.067Z" transform="translate(43.729 1.754)" fill="#fd0c15" fill-rule="evenodd"></path><path id="Trazado_87190" data-name="Trazado 87190" d="M346.606,418.573c0,6.755-2.094,10.74-5.4,10.74-2.432.067-3.85-2.635-3.85-6.619,0-4.728,2.161-10.132,5.538-10.132,2.769,0,3.714,2.9,3.714,6.011Zm7.363.068c0-7.5-3.716-13.373-10.673-13.373-8.037,0-13.236,7.092-13.236,17.56,0,7.5,3.106,13.643,10.67,13.643,7.633,0,13.239-5.4,13.239-17.83Z" transform="translate(36.435 12.752)" fill="#f3ae12" fill-rule="evenodd"></path><path id="Trazado_87191" data-name="Trazado 87191" d="M337.491,401.773l-1.148,7.97a11.978,11.978,0,0,0-6.215-1.958c-5.2,0-8.847,5.672-8.847,13.71,0,5.538,2.431,8.915,6.483,8.915a12.3,12.3,0,0,0,5.943-1.892l-1.215,8.375a19.076,19.076,0,0,1-6.215,1.081c-7.5,0-12.224-6.079-12.224-15.8,0-13.1,6.483-22.289,15.737-22.289a10.477,10.477,0,0,1,3.107.406l2.836.81a6.377,6.377,0,0,1,1.756.675Z" transform="translate(31.367 11.046)" fill="#f3ae12" fill-rule="evenodd"></path><path id="Trazado_87192" data-name="Trazado 87192" d="M300.749,405.438a2.5,2.5,0,0,0-.743-.068c-2.3,0-3.58,1.284-5.741,4.864l.675-4.525h-6.282L284.4,435.494h6.957c2.5-18.236,3.174-21.343,6.483-21.343a1.885,1.885,0,0,1,.541.068,31.922,31.922,0,0,1,2.633-8.647l-.27-.134Z" transform="translate(21.978 12.784)" fill="#f3ae12" fill-rule="evenodd"></path><path id="Trazado_87193" data-name="Trazado 87193" d="M371.067,436.848h-6.619l.337-2.9a7.936,7.936,0,0,1-6.483,3.31c-5.065,0-8.442-4.931-8.442-12.361,0-9.928,5.2-18.3,11.347-18.3,2.7,0,4.8,1.282,6.686,4.12l1.554-10.469h6.889l-5.268,36.607Zm-10.333-7.024c3.309,0,5.538-4.12,5.538-10.063,0-3.783-1.284-5.809-3.714-5.809-3.174,0-5.4,4.12-5.4,10,0,3.917,1.215,5.876,3.58,5.876Z" transform="translate(42.705 11.16)" fill="#f3ae12" fill-rule="evenodd"></path><path id="Trazado_87194" data-name="Trazado 87194" d="M251.727,435.137a21.528,21.528,0,0,1-7.159,1.217c-7.768,0-11.82-4.594-11.82-13.373,0-10.2,5.2-17.763,12.157-17.763,5.741,0,9.388,4.187,9.388,10.874a36.413,36.413,0,0,1-.878,7.361H239.571a5.445,5.445,0,0,0-.068.945c0,3.444,2.095,5.2,6.147,5.2a15.2,15.2,0,0,0,7.226-1.892l-1.148,7.43Zm-3.917-17.763c0-.608.067-1.148.067-1.485,0-2.432-1.215-3.85-3.309-3.85-2.229,0-3.783,1.891-4.458,5.335Z" transform="translate(5.621 12.735)" fill="#f3ae12" fill-rule="evenodd"></path><path id="Trazado_87195" data-name="Trazado 87195" d="M314.736,435.137a21.528,21.528,0,0,1-7.159,1.217c-7.835,0-11.887-4.594-11.887-13.373,0-10.2,5.2-17.763,12.157-17.763,5.741,0,9.456,4.187,9.456,10.874a36.414,36.414,0,0,1-.878,7.361H302.579a5.443,5.443,0,0,0-.068.945c0,3.444,2.095,5.2,6.148,5.2a15.189,15.189,0,0,0,7.226-1.892l-1.148,7.43Zm-3.917-17.763a13.2,13.2,0,0,0,.067-1.485c0-2.432-1.215-3.85-3.309-3.85-2.229,0-3.783,1.891-4.458,5.335Z" transform="translate(25.552 12.735)" fill="#f3ae12" fill-rule="evenodd"></path><path id="Trazado_87196" data-name="Trazado 87196" d="M388.6,435.137a22.135,22.135,0,0,1-7.16,1.217c-7.767,0-11.887-4.594-11.887-13.373,0-10.2,5.2-17.763,12.225-17.763,5.741,0,9.388,4.187,9.388,10.874a36.412,36.412,0,0,1-.878,7.361H376.446a5.55,5.55,0,0,0-.067.945c0,3.444,2.094,5.2,6.146,5.2a15.2,15.2,0,0,0,7.227-1.892l-1.148,7.43Zm-3.918-17.763c0-.608.068-1.148.068-1.485,0-2.432-1.217-3.85-3.31-3.85-2.229,0-3.781,1.891-4.458,5.335Z" transform="translate(48.943 12.735)" fill="#f3ae12" fill-rule="evenodd"></path><path id="Trazado_87197" data-name="Trazado 87197" d="M236.68,408.625a9.9,9.9,0,0,0-5.808-1.689c-2.837,0-5.067.608-5.067,3.58,0,5.268,10.267,3.31,10.267,14.656,0,10.335-6.755,13.036-12.9,13.036A20.76,20.76,0,0,1,215,436.248l1.688-7.564a10.729,10.729,0,0,0,6.552,2.161c2.229,0,5.606-.607,5.606-4.457,0-6.012-10.266-3.783-10.266-14.319,0-9.658,6.011-12.5,11.82-12.5,3.242,0,6.349.473,8.1,1.689l-1.824,7.362Z" transform="translate(0 10.948)" fill="#f3ae12" fill-rule="evenodd"></path><path id="Trazado_87198" data-name="Trazado 87198" d="M266.521,435.1a14.294,14.294,0,0,1-6.215,1.148c-6.078,0-9.861-6.079-9.861-13.508,0-9.726,5.471-17.426,13.508-17.426a14.721,14.721,0,0,1,6.552,1.959l-1.554,7.092a8.287,8.287,0,0,0-4.66-1.621c-3.716,0-6.416,3.444-6.416,9.523,0,3.512,1.958,6.416,5,6.416a8.651,8.651,0,0,0,4.66-1.284l-1.013,7.7Z" transform="translate(11.225 12.768)" fill="#f3ae12" fill-rule="evenodd"></path><path id="Trazado_87199" data-name="Trazado 87199" d="M287.669,427.494c-.337,2.566-.675,5.067-.878,7.7H280.1l.54-4.8h-.067c-2.093,3.242-4.255,5.471-8.105,5.471-4.187,0-6.483-4.458-6.483-10.2a41.083,41.083,0,0,1,.54-6.213l1.892-13.779h7.5l-2.025,13.846a33.113,33.113,0,0,0-.473,4.525c0,1.756.81,3.512,2.836,3.377,3.04,0,4.862-3.716,5.4-8.105l2.093-13.643h7.227l-3.31,21.816Z" transform="translate(16.147 12.881)" fill="#f3ae12" fill-rule="evenodd"></path><path id="Trazado_87200" data-name="Trazado 87200" d="M389.972,429.284h-1.148v-4.93H387.2v-1.08h4.39v1.08h-1.621v4.93Z" transform="translate(54.531 18.453)" fill="#f3ae12" fill-rule="evenodd"></path><path id="Trazado_87201" data-name="Trazado 87201" d="M396.267,429.284h-1.081v-5h0l-1.013,5h-1.08l-1.013-5h0v5H391v-6.011h1.688l.946,4.728h.067l.946-4.728h1.621v6.011Z" transform="translate(55.733 18.453)" fill="#f3ae12" fill-rule="evenodd"></path></g><rect id="Rect&#xE1;ngulo_1749" data-name="Rect&#xE1;ngulo 1749" width="467" height="147" transform="translate(1531 9661)" fill="none"></rect></g></svg>