<svg xmlns="http://www.w3.org/2000/svg" width="467" height="147" viewBox="0 0 467 147"><g id="Grupo_5107" data-name="Grupo 5107" transform="translate(459 -9414)"><g id="Grupo_5106" data-name="Grupo 5106" transform="translate(-621.846 9181.463)"><g id="Grupo_5104" data-name="Grupo 5104"><g id="Grupo_5103" data-name="Grupo 5103"><g id="Grupo_5102" data-name="Grupo 5102"><g id="Grupo_5101" data-name="Grupo 5101"><path id="Trazado_87234" data-name="Trazado 87234" d="M505.475,278.492H483.224a3.09,3.09,0,0,0-3.053,2.61l-9,57.053a1.855,1.855,0,0,0,1.832,2.143h11.416a2.165,2.165,0,0,0,2.138-1.827L489.11,322.3a3.091,3.091,0,0,1,3.054-2.61H499.2c14.655,0,23.114-7.093,25.324-21.15.995-6.148.04-10.979-2.838-14.361C518.526,280.458,512.918,278.492,505.475,278.492Zm2.567,20.837c-1.216,7.987-7.316,7.987-13.215,7.987H491.47l2.354-14.912a1.856,1.856,0,0,1,1.832-1.565H497.2c4.016,0,7.81,0,9.765,2.288C508.13,294.5,508.484,296.525,508.042,299.329Z" fill="#008ad8"></path><path id="Trazado_87235" data-name="Trazado 87235" d="M346.778,278.492h-22.25a3.091,3.091,0,0,0-3.054,2.61l-9,57.053a1.854,1.854,0,0,0,1.832,2.143h10.624a3.09,3.09,0,0,0,3.053-2.609l2.428-15.392a3.091,3.091,0,0,1,3.053-2.61h7.041c14.656,0,23.114-7.093,25.325-21.15.995-6.148.04-10.979-2.838-14.361C359.83,280.458,354.222,278.492,346.778,278.492Zm2.568,20.837c-1.216,7.987-7.316,7.987-13.216,7.987h-3.357l2.355-14.912a1.854,1.854,0,0,1,1.832-1.565H338.5c4.016,0,7.809,0,9.765,2.288C349.434,294.5,349.788,296.525,349.346,299.329Z" fill="#002575"></path><path id="Trazado_87236" data-name="Trazado 87236" d="M413.282,299.074H402.627a1.854,1.854,0,0,0-1.832,1.566l-.468,2.979-.745-1.08c-2.308-3.349-7.45-4.468-12.585-4.468-11.77,0-21.826,8.92-23.783,21.431-1.018,6.241.428,12.2,3.966,16.368,3.252,3.825,7.892,5.417,13.419,5.417a20.4,20.4,0,0,0,14.75-6.1l-.475,2.961a1.854,1.854,0,0,0,1.832,2.145H406.3a3.091,3.091,0,0,0,3.054-2.609l5.759-36.472A1.853,1.853,0,0,0,413.282,299.074Zm-14.849,20.737a11.878,11.878,0,0,1-12.025,10.175,8.253,8.253,0,0,1-8.824-10.36,11.923,11.923,0,0,1,11.94-10.252,8.978,8.978,0,0,1,7.1,2.9A9.173,9.173,0,0,1,398.433,319.811Z" fill="#002575"></path><path id="Trazado_87237" data-name="Trazado 87237" d="M571.978,299.074H561.324a1.853,1.853,0,0,0-1.832,1.566l-.469,2.979-.745-1.08c-2.307-3.349-7.449-4.468-12.585-4.468-11.77,0-21.825,8.92-23.782,21.431-1.019,6.241.427,12.2,3.966,16.368,3.251,3.825,7.891,5.417,13.419,5.417a20.4,20.4,0,0,0,14.75-6.1l-.476,2.961A1.855,1.855,0,0,0,555.4,340.3H565a3.09,3.09,0,0,0,3.053-2.609l5.76-36.472A1.853,1.853,0,0,0,571.978,299.074ZM557.13,319.811A11.879,11.879,0,0,1,545.1,329.986a8.254,8.254,0,0,1-8.824-10.36,11.924,11.924,0,0,1,11.94-10.252,8.977,8.977,0,0,1,7.1,2.9A9.177,9.177,0,0,1,557.13,319.811Z" fill="#008ad8"></path><path id="Trazado_87238" data-name="Trazado 87238" d="M470.027,299.074H459.318a3.1,3.1,0,0,0-2.558,1.355l-14.772,21.757-6.26-20.907a3.093,3.093,0,0,0-2.962-2.2H422.239a1.855,1.855,0,0,0-1.755,2.454l11.792,34.611-11.092,15.65a1.855,1.855,0,0,0,1.514,2.927h10.7a3.09,3.09,0,0,0,2.541-1.331l35.614-51.4A1.855,1.855,0,0,0,470.027,299.074Z" fill="#002575"></path><path id="Trazado_87239" data-name="Trazado 87239" d="M584.536,280.059l-9.133,58.1a1.855,1.855,0,0,0,1.833,2.142h9.184a3.09,3.09,0,0,0,3.053-2.609l9.005-57.053a1.855,1.855,0,0,0-1.832-2.144H586.368A1.854,1.854,0,0,0,584.536,280.059Z" fill="#008ad8"></path></g></g></g></g><g id="Grupo_5105" data-name="Grupo 5105"><path id="Trazado_87240" data-name="Trazado 87240" d="M268.828,281.48c1.2-7.637-.009-12.834-4.139-17.541-4.548-5.182-12.765-7.4-23.277-7.4H210.9a4.366,4.366,0,0,0-4.313,3.685L193.879,340.8a2.619,2.619,0,0,0,2.587,3.027H215.3l-1.3,8.245a2.292,2.292,0,0,0,2.264,2.649h15.878a3.82,3.82,0,0,0,3.772-3.224l.156-.807,2.991-18.968.193-1.048a3.819,3.819,0,0,1,3.773-3.224h2.375c15.382,0,27.427-6.25,30.947-24.324,1.47-7.552.71-13.856-3.179-18.288a15.133,15.133,0,0,0-4.346-3.353h0" fill="#008ad8"></path><path id="Trazado_87241" data-name="Trazado 87241" d="M268.828,281.48c1.2-7.637-.009-12.834-4.139-17.541-4.548-5.182-12.765-7.4-23.277-7.4H210.9a4.366,4.366,0,0,0-4.313,3.685L193.879,340.8a2.619,2.619,0,0,0,2.587,3.027H215.3l4.733-30.006-.147.941a4.35,4.35,0,0,1,4.3-3.685h8.953c17.584,0,31.353-7.145,35.376-27.8.119-.611.22-1.2.312-1.787" fill="#001a57"></path><path id="Trazado_87242" data-name="Trazado 87242" d="M225.12,281.582a3.815,3.815,0,0,1,3.772-3.224h23.92a49.9,49.9,0,0,1,7.891.574q1.035.166,2.014.384t1.9.486q.461.133.9.282a21.572,21.572,0,0,1,3.307,1.4c1.2-7.637-.009-12.834-4.139-17.541-4.548-5.182-12.765-7.4-23.277-7.4H210.9a4.366,4.366,0,0,0-4.313,3.685L193.879,340.8a2.619,2.619,0,0,0,2.587,3.027H215.3l4.732-30.006Z" fill="#002575"></path></g></g><rect id="Rect&#xE1;ngulo_1745" data-name="Rect&#xE1;ngulo 1745" width="467" height="147" transform="translate(-459 9414)" fill="none"></rect></g></svg>