<svg xmlns="http://www.w3.org/2000/svg" width="467" height="147" viewBox="0 0 467 147"><g id="Grupo_5110" data-name="Grupo 5110" transform="translate(-1000 -9661)"><g id="Grupo_5096" data-name="Grupo 5096" transform="translate(1088.387 9628.819)"><path id="Trazado_87202" data-name="Trazado 87202" d="M217.984,124.789q-.427,3.442-1.129,6.612c-1.961-.639-4.224-1.665-7.42-1.451-1.907.128-4.163.861-4.193,2.58-.034,1.906,3.1,3.038,4.839,3.871,3.141,1.5,6.512,3.506,6.774,7.581a9.6,9.6,0,0,1-2.9,7.42c-4.4,4.156-14.15,4.594-20.808,1.936q.624-3.33,1.13-6.774c2.578,1.1,6.118,2.576,10,2.1,1.769-.219,3.934-1.25,3.871-3.064-.077-2.214-4.209-3.531-6.291-4.678-2.419-1.333-5.171-3.551-5.322-6.936a8.859,8.859,0,0,1,1.936-5.806C201.9,123.9,210.738,122.386,217.984,124.789Z" fill="#1e3d8c" fill-rule="evenodd"></path><path id="Trazado_87203" data-name="Trazado 87203" d="M138.933,81.592h8.893L142.351,116.1h-8.894l5.476-34.509Z" fill="#1e3d8c" fill-rule="evenodd"></path><path id="Trazado_87204" data-name="Trazado 87204" d="M108.119,81.59h13.616c8.664,0,10.913,4.99,9.968,10.948a11.552,11.552,0,0,1-9.009,9.478l8.625,14.085H120.155l-6.468-13.552-2.15,13.552h-8.894l5.476-34.511Zm7.8,6.863-1.374,8.658h2.573a5.458,5.458,0,0,0,5.256-4.33h0a3.677,3.677,0,0,0-3.831-4.328Z" fill="#1e3d8c" fill-rule="evenodd"></path><path id="Trazado_87205" data-name="Trazado 87205" d="M179.547,81.592h8.893L182.965,116.1H174.07l5.477-34.509Z" fill="#1e3d8c" fill-rule="evenodd"></path><path id="Trazado_87206" data-name="Trazado 87206" d="M195.2,81.59h19.526l-1.19,7.5H202.9l-.936,5.9H212.07l-1.189,7.5H200.772l-.968,6.1h10.632l-1.19,7.5H189.721L195.2,81.59Z" fill="#1e3d8c" fill-rule="evenodd"></path><path id="Trazado_87207" data-name="Trazado 87207" d="M83.306,81.59h19.525l-1.191,7.5H91.009l-.936,5.9H100.18l-1.191,7.5H88.883l-.969,6.1H98.546l-1.19,7.5H77.83l5.476-34.51Z" fill="#1e3d8c" fill-rule="evenodd"></path><path id="Trazado_87208" data-name="Trazado 87208" d="M154.56,81.59H174.3l-1.189,7.5H162.263l-.95,5.9h9.874l-1.194,7.5h-9.87L157.963,116.1h-8.879l5.476-34.51Z" fill="#1e3d8c" fill-rule="evenodd"></path><path id="Trazado_87209" data-name="Trazado 87209" d="M219.955,81.59h11.59c13.807,0,16.955,10.444,15.873,17.265-1.547,9.743-10.233,17.246-21.349,17.246h-11.59l5.476-34.511Zm7.7,7.5h1.837c6.8,0,9.455,4.795,8.723,9.421-.987,6.205-5.448,10.083-11.278,10.083h-2.378l3.1-19.5Z" fill="#1e3d8c" fill-rule="evenodd"></path><path id="Trazado_87210" data-name="Trazado 87210" d="M41.613,76.89H58.065l1.954,25.07C70.9,83.119,81.967,64.989,93.111,47.181h5.366c-11.8,22.753-23.446,45.652-34.728,68.92H51.671L48.727,88.453C48,81.59,46.61,78.677,41.613,77.94V76.89Z" fill="#1e3d8c" fill-rule="evenodd"></path><path id="Trazado_87211" data-name="Trazado 87211" d="M47.842,62.632l14.027,5.946L63.088,84.2h1.037L76.857,62.643V61.561H47.84l0,1.072Z" fill="#f48100" fill-rule="evenodd"></path><path id="Trazado_87212" data-name="Trazado 87212" d="M112.692,140.818c2.127,0,3.572,1.95,3.227,4.352a4.927,4.927,0,0,1-4.474,4.35c-2.127,0-3.572-1.949-3.228-4.35a4.929,4.929,0,0,1,4.475-4.352Zm-7.184-16.6h5.756l-1.94,13.6a8.465,8.465,0,0,1,5.9-2.568c4.618,0,7.646,4.45,6.83,9.942s-5.17,9.947-9.788,9.947a5.657,5.657,0,0,1-5.021-2.751l-.307,2.157h-5.757l4.325-30.328Z" fill="#1e3d8c" fill-rule="evenodd"></path><path id="Trazado_87213" data-name="Trazado 87213" d="M122.55,135.711h6.907l3.089,9.641,6-9.641h6.675L127.7,163.848H121.03l7.386-11.864-5.866-16.273Z" fill="#1e3d8c" fill-rule="evenodd"></path><path id="Trazado_87214" data-name="Trazado 87214" d="M179.544,154.533l5.059-30.327h8.277l-5.059,30.327Z" fill="#1e3d8c" fill-rule="evenodd"></path><path id="Trazado_87215" data-name="Trazado 87215" d="M172.625,124.144c-2.854,6.716-5.287,13.853-8.226,20.484l-.862-3.979c0-.014-.011-.033-.014-.047l.146.708a18.7,18.7,0,0,0-3.111-5.879c-.038-.047-.074-.094-.111-.141-.243-.311-.5-.614-.762-.916q-.237-.276-.484-.551a30.182,30.182,0,0,0-7-5.583l7.357,26.227h8.872c4.175-10.234,8.682-20.135,12.9-30.323Z" fill="#1e3d8c" fill-rule="evenodd"></path><path id="Trazado_87216" data-name="Trazado 87216" d="M157,124.148H143.472v.661c7.789,1.518,17.623,8.052,20.2,16.5l-2.9-14.125A3.475,3.475,0,0,0,157,124.148Z" fill="#f48100" fill-rule="evenodd"></path><path id="Trazado_87217" data-name="Trazado 87217" d="M245.888,154.628h-7.581c-.491-1.445-.627-3.244-1.129-4.678H226.855l-1.935,4.678h-8.71L227.5,128.66c.5-1.139,1.4-2.7,1.774-3.387.575-1.05,2.793-1.129,3.737-1.129h6.263Zm-12.56-22.083-4.215,11.276h6.816Z" fill="#1e3d8c" fill-rule="evenodd"></path></g><rect id="Rect&#xE1;ngulo_1748" data-name="Rect&#xE1;ngulo 1748" width="467" height="147" transform="translate(1000 9661)" fill="none"></rect></g></svg>