<svg xmlns="http://www.w3.org/2000/svg" width="467" height="147" viewBox="0 0 467 147"><g id="Grupo_5108" data-name="Grupo 5108" transform="translate(91 -9661)"><g id="visa" transform="translate(42.983 9702.017)"><path id="Trazado_87232" data-name="Trazado 87232" d="M137.226.983C121.4.983,110.278,9.4,110.18,21.431c-.1,8.914,7.952,13.885,14.007,16.847,6.248,3.029,8.335,4.975,8.314,7.685-.062,4.153-5,6.045-9.587,6.045a32.072,32.072,0,0,1-15.048-3.239l-2.078-.988L103.549,61.65c3.742,1.726,10.653,3.221,17.838,3.3,16.8,0,27.726-8.319,27.856-21.163.066-7.07-4.208-12.421-13.449-16.839-5.578-2.872-9.028-4.777-8.976-7.688,0-2.572,2.894-5.328,9.168-5.328a27.971,27.971,0,0,1,11.975,2.381l1.427.712,2.177-13.434A39.541,39.541,0,0,0,137.225.984ZM87.535,2.064,77.523,64.033h16l10.017-61.97h-16ZM64.1,2.124,48.437,44.358l-1.67-8.582c-3.9-10.523-12.345-21.562-22.179-26.035L38.917,63.974l16.938-.008L81.042,2.125H64.1Zm116.143,0c-3.833,0-6.7,1.092-8.4,5.143L148.095,64.054H164.9s2.748-7.643,3.369-9.316c1.834,0,18.157.035,20.485.035.5,2.161,1.948,9.28,1.948,9.28h14.859L192.606,2.128H180.244Zm1.131,16.707,1.066,5.342s3.075,14.786,3.716,17.883H172.874c1.329-3.556,6.374-17.322,6.374-17.322-.1.168,1.313-3.584,2.126-5.9Z" transform="translate(-6.936)" fill="#0023a0"></path><path id="Trazado_87233" data-name="Trazado 87233" d="M26.975,2.554H1.167L1.017,3.62c20.065,5.132,33.3,17.733,38.814,32.635L34.223,7.773c-.964-3.917-3.772-5.081-7.248-5.22" transform="translate(0 -0.462)" fill="#ffab00"></path></g><rect id="Rect&#xE1;ngulo_1746" data-name="Rect&#xE1;ngulo 1746" width="467" height="147" transform="translate(-91 9661)" fill="none"></rect></g></svg>